<svg xmlns="http://www.w3.org/2000/svg" viewBox="0 0 200 260" fill="white">
  <!-- Bulb glass -->
  <path d="
    M100,10
    C60,10 30,40 30,80
    C30,108 46,132 68,148
    C72,152 74,156 74,162
    L74,172
    L126,172
    L126,162
    C126,156 128,152 132,148
    C154,132 170,108 170,80
    C170,40 140,10 100,10
    Z
  "/>
  <!-- Base segments -->
  <rect x="72" y="176" width="56" height="12" rx="4"/>
  <rect x="76" y="192" width="48" height="12" rx="4"/>
  <!-- Tip -->
  <path d="M88,208 Q100,228 112,208 Z"/>
  <!-- Filament lines (cutouts for detail) -->
  <line x1="85" y1="90" x2="100" y2="110" stroke="#0a0a0a" stroke-width="5" stroke-linecap="round"/>
  <line x1="100" y1="110" x2="115" y2="90" stroke="#0a0a0a" stroke-width="5" stroke-linecap="round"/>
  <line x1="115" y1="90" x2="100" y2="70" stroke="#0a0a0a" stroke-width="5" stroke-linecap="round"/>
  <line x1="100" y1="70" x2="85" y2="90" stroke="#0a0a0a" stroke-width="5" stroke-linecap="round"/>
</svg>
